<svg width="112" height="112" viewBox="0 0 112 112" fill="none" xmlns="http://www.w3.org/2000/svg">
<g clip-path="url(#clip0_102_9)">
<path d="M27.7885 71.077C32.0848 68.0881 32.0658 63.241 30.362 58.1852C28.5914 52.623 36.6753 48.8201 39.0074 47.4382C41.4727 45.9666 42.8815 45.1235 43.5971 44.6256C50.2807 39.9756 51.9359 30.8659 47.2938 24.2791C42.6519 17.6929 33.4716 16.1236 26.7889 20.7738C20.1057 25.4234 18.4502 34.5321 23.0911 41.1189C27.4216 47.7835 22.2635 52.4778 16.9839 55.7446C12.6876 58.7334 11.6237 64.5891 14.6077 68.823C17.5912 73.0573 23.4927 74.0665 27.7886 71.0771L27.7885 71.077Z" fill="url(#paint0_linear_102_9)"/>
<path d="M27.7882 71.077C31.5575 68.4548 32.0036 64.4026 30.9061 60.0336C29.4173 58.3682 27.3586 57.3076 25.1214 57.0534C22.8842 56.7993 20.6244 57.3693 18.7715 58.655C16.9663 59.914 15.6716 61.7693 15.1225 63.8841C14.5735 65.9988 14.8065 68.2326 15.7793 70.18C18.9625 73.2352 23.9986 73.7141 27.7882 71.077Z" fill="url(#paint1_linear_102_9)"/>
<path d="M21.3601 38.5513C24.3213 46.6887 32.1289 48.7359 40.9974 48.1837C50.7094 47.7418 53.3509 62.2729 54.5713 66.5871C55.8789 71.1523 56.6296 73.7618 57.1229 75.1171C61.73 87.7765 75.6766 94.3224 88.2727 89.7372C100.868 85.152 107.342 71.1739 102.735 58.5159C98.1278 45.8575 84.183 39.3115 71.5874 43.8948C59.0001 47.9493 53.6657 37.7054 50.6802 27.8796C47.719 19.7422 38.7542 15.5346 30.6577 18.4821C22.5608 21.4286 18.3979 30.4142 21.3601 38.5513Z" fill="url(#paint2_linear_102_9)"/>
<path d="M47.1225 50.3422C51.9573 54.4758 53.6607 63.3696 54.5709 66.5871C55.8785 71.1523 56.6292 73.7619 57.1225 75.1172C61.7296 87.7766 75.6762 94.3225 88.2723 89.7373C94.1113 87.6116 98.6102 83.4536 101.324 78.3578C101.133 74.8722 100.431 71.4325 99.2386 68.15C96.0238 59.3178 89.4496 52.118 80.9622 48.1345C72.4748 44.1509 62.7694 43.7099 53.9811 46.9085C51.5765 47.799 49.2767 48.9503 47.1225 50.3422Z" fill="url(#paint3_linear_102_9)"/>
<path d="M21.3601 38.5513C23.9581 45.6906 30.2867 48.1393 37.789 48.2604C41.1094 46.5982 43.7017 43.7674 45.0731 40.3059C46.4446 36.8445 46.4996 32.9937 45.2276 29.4857C43.9784 26.0651 41.55 23.2037 38.3834 21.4211C35.2168 19.6386 31.5219 19.053 27.9699 19.7708C21.6843 23.5414 18.747 31.3732 21.3601 38.5513Z" fill="url(#paint4_linear_102_9)"/>
</g>
<defs>
<linearGradient id="paint0_linear_102_9" x1="16.6781" y1="75.4634" x2="34.9313" y2="26.1813" gradientUnits="userSpaceOnUse">
<stop stop-color="#070FB4"/>
<stop offset="1" stop-color="#43F2F8"/>
</linearGradient>
<linearGradient id="paint1_linear_102_9" x1="16.7209" y1="61.8171" x2="34.1115" y2="69.2926" gradientUnits="userSpaceOnUse">
<stop stop-color="#08C6E6"/>
<stop offset="1" stop-color="#08C6E6" stop-opacity="0"/>
</linearGradient>
<linearGradient id="paint2_linear_102_9" x1="81.3927" y1="-0.1405" x2="45.1252" y2="105.078" gradientUnits="userSpaceOnUse">
<stop stop-color="#070FB4"/>
<stop offset="1" stop-color="#43F2F8"/>
</linearGradient>
<linearGradient id="paint3_linear_102_9" x1="101.02" y1="67.8442" x2="63.4618" y2="71.1773" gradientUnits="userSpaceOnUse">
<stop stop-color="#0DCEF5"/>
<stop offset="1" stop-color="#0DCEF5" stop-opacity="0"/>
</linearGradient>
<linearGradient id="paint4_linear_102_9" x1="45.2276" y1="29.4857" x2="21.2422" y2="38.2158" gradientUnits="userSpaceOnUse">
<stop stop-color="#08C6E6"/>
<stop offset="1" stop-color="#08C6E6" stop-opacity="0"/>
</linearGradient>
<clipPath id="clip0_102_9">
<rect width="86.6634" height="86.6634" fill="white" transform="translate(29.6406 111.078) rotate(-110)"/>
</clipPath>
</defs>
</svg>
